<svg width="26" height="26" viewBox="0 0 26 26" fill="none" xmlns="http://www.w3.org/2000/svg">
<path d="M2.35355 0.646446C1.24898 0.646446 0.353546 1.54188 0.353546 2.64645L0.353546 20.6464C0.353546 21.751 1.24898 22.6464 2.35355 22.6464C3.45812 22.6464 4.35355 21.751 4.35355 20.6464V4.64645H20.3535C21.4581 4.64645 22.3535 3.75102 22.3535 2.64645C22.3535 1.54188 21.4581 0.646446 20.3535 0.646446L2.35355 0.646446ZM21.9393 25.0607C22.7204 25.8417 23.9867 25.8417 24.7678 25.0607C25.5488 24.2796 25.5488 23.0133 24.7678 22.2322L21.9393 25.0607ZM0.939333 4.06066L21.9393 25.0607L24.7678 22.2322L3.76776 1.23223L0.939333 4.06066Z" fill="white"/>
</svg>
