<svg width="46" height="46" viewBox="0 0 46 46" fill="none" xmlns="http://www.w3.org/2000/svg">
<path d="M29.9192 10.5417V30.015C29.9192 30.7817 29.6892 31.5292 29.2675 32.1617L24.035 39.9433C23.2108 41.1892 21.16 42.0708 19.4158 41.4192C17.5375 40.7867 16.2917 38.6783 16.6942 36.8L17.6908 30.5325C17.7675 29.9575 17.6142 29.44 17.2883 29.0375C16.9625 28.6733 16.4833 28.4433 15.9658 28.4433H8.08834C6.57418 28.4433 5.27084 27.83 4.50418 26.7567C3.77584 25.7217 3.64168 24.38 4.12084 23.0192L8.83584 8.66333C9.43001 6.28666 12.0175 4.35083 14.5858 4.35083H22.0608C23.345 4.35083 25.1467 4.79166 25.9708 5.61583L28.4242 7.51333C29.3633 8.24166 29.9192 9.35333 29.9192 10.5417Z" fill="#C24545"/>
<path d="M36.0141 33.7525H37.9883C40.9591 33.7525 42.1666 32.6025 42.1666 29.7658V10.5033C42.1666 7.66666 40.9591 6.51666 37.9883 6.51666H36.0141C33.0433 6.51666 31.8358 7.66666 31.8358 10.5033V29.785C31.8358 32.6025 33.0433 33.7525 36.0141 33.7525Z" fill="#C24545"/>
</svg>
