<svg width="47" height="47" viewBox="0 0 47 47" fill="none" xmlns="http://www.w3.org/2000/svg">
<path d="M16.4304 36.2096V16.3129C16.4304 15.5296 16.6654 14.7658 17.0963 14.1196L22.4425 6.16876C23.2846 4.89584 25.38 3.99501 27.1621 4.66084C29.0813 5.30709 30.3542 7.46126 29.9429 9.38042L28.9246 15.7842C28.8463 16.3717 29.0029 16.9004 29.3358 17.3117C29.6688 17.6838 30.1583 17.9188 30.6871 17.9188H38.7358C40.2829 17.9188 41.6146 18.5454 42.3979 19.6421C43.1421 20.6996 43.2792 22.0704 42.7896 23.4608L37.9721 38.1288C37.365 40.5571 34.7213 42.535 32.0971 42.535H24.4596C23.1475 42.535 21.3067 42.0846 20.4646 41.2425L17.9579 39.3038C16.9983 38.5792 16.4304 37.4238 16.4304 36.2096Z" fill="#5FAC67"/>
<path d="M10.2029 12.4942H8.18585C5.15044 12.4942 3.91669 13.6692 3.91669 16.5675V36.2683C3.91669 39.1667 5.15044 40.3417 8.18585 40.3417H10.2029C13.2384 40.3417 14.4721 39.1667 14.4721 36.2683V16.5675C14.4721 13.6692 13.2384 12.4942 10.2029 12.4942Z" fill="#5FAC67"/>
</svg>
