<svg width="389" height="669" viewBox="0 0 389 669" fill="none" xmlns="http://www.w3.org/2000/svg">
<mask id="mask0_133_3299" style="mask-type:alpha" maskUnits="userSpaceOnUse" x="0" y="0" width="389" height="669">
<rect width="389" height="669" fill="#D9D9D9"/>
</mask>
<g mask="url(#mask0_133_3299)">
<path fill-rule="evenodd" clip-rule="evenodd" d="M389.822 484.569C481.391 642.013 392.83 914 392.83 914H389.822V484.569ZM-0.178223 361.007V172H389.822V484.569C389.656 484.284 389.489 483.998 389.322 483.714C350.687 417.932 276.775 424.319 201.983 430.783C121.152 437.768 39.2931 444.842 -0.178223 361.007ZM-0.178223 361.007V914H-2.73902L-22.679 483.714C-22.679 483.714 -48.1512 -53.8161 -22.679 264C-19.3697 305.29 -11.5256 336.905 -0.178223 361.007ZM-0.178223 914H389.822V1016H-0.178223V914Z" fill="#EA9139"/>
</g>
</svg>
