<svg width="180" height="53" viewBox="0 0 180 53" fill="none" xmlns="http://www.w3.org/2000/svg">
<path d="M32.05 14.43V29.13C32.05 30.6 32.4117 31.7317 33.135 32.525C33.8583 33.3183 34.92 33.715 36.32 33.715C37.72 33.715 38.7933 33.3183 39.54 32.525C40.2867 31.7317 40.66 30.6 40.66 29.13V14.43H46.645V29.095C46.645 31.2883 46.1783 33.1433 45.245 34.66C44.3117 36.1767 43.0517 37.32 41.465 38.09C39.9017 38.86 38.1517 39.245 36.215 39.245C34.2783 39.245 32.54 38.8717 31 38.125C29.4833 37.355 28.2817 36.2117 27.395 34.695C26.5083 33.155 26.065 31.2883 26.065 29.095V14.43H32.05ZM72.8277 39H66.8427L56.8327 23.845V39H50.8477V14.43H56.8327L66.8427 29.655V14.43H72.8277V39ZM76.1511 26.68C76.1511 24.2533 76.6761 22.095 77.7261 20.205C78.7761 18.2917 80.2344 16.81 82.1011 15.76C83.9911 14.6867 86.1261 14.15 88.5061 14.15C91.4228 14.15 93.9194 14.92 95.9961 16.46C98.0728 18 99.4611 20.1 100.161 22.76H93.5811C93.0911 21.7333 92.3911 20.9517 91.4811 20.415C90.5944 19.8783 89.5794 19.61 88.4361 19.61C86.5928 19.61 85.0994 20.2517 83.9561 21.535C82.8128 22.8183 82.2411 24.5333 82.2411 26.68C82.2411 28.8267 82.8128 30.5417 83.9561 31.825C85.0994 33.1083 86.5928 33.75 88.4361 33.75C89.5794 33.75 90.5944 33.4817 91.4811 32.945C92.3911 32.4083 93.0911 31.6267 93.5811 30.6H100.161C99.4611 33.26 98.0728 35.36 95.9961 36.9C93.9194 38.4167 91.4228 39.175 88.5061 39.175C86.1261 39.175 83.9911 38.65 82.1011 37.6C80.2344 36.5267 78.7761 35.045 77.7261 33.155C76.6761 31.265 76.1511 29.1067 76.1511 26.68Z" fill="white"/>
<path d="M121.05 14.43V29.13C121.05 30.6 121.412 31.7317 122.135 32.525C122.858 33.3183 123.92 33.715 125.32 33.715C126.72 33.715 127.793 33.3183 128.54 32.525C129.287 31.7317 129.66 30.6 129.66 29.13V14.43H135.645V29.095C135.645 31.2883 135.178 33.1433 134.245 34.66C133.312 36.1767 132.052 37.32 130.465 38.09C128.902 38.86 127.152 39.245 125.215 39.245C123.278 39.245 121.54 38.8717 120 38.125C118.483 37.355 117.282 36.2117 116.395 34.695C115.508 33.155 115.065 31.2883 115.065 29.095V14.43H121.05ZM152.378 39L147.268 29.725H145.833V39H139.848V14.43H149.893C151.829 14.43 153.474 14.7683 154.828 15.445C156.204 16.1217 157.231 17.055 157.908 18.245C158.584 19.4117 158.923 20.7183 158.923 22.165C158.923 23.7983 158.456 25.2567 157.523 26.54C156.613 27.8233 155.259 28.7333 153.463 29.27L159.133 39H152.378ZM145.833 25.49H149.543C150.639 25.49 151.456 25.2217 151.993 24.685C152.553 24.1483 152.833 23.39 152.833 22.41C152.833 21.4767 152.553 20.7417 151.993 20.205C151.456 19.6683 150.639 19.4 149.543 19.4H145.833V25.49ZM168.665 19.225V24.195H176.68V28.815H168.665V34.205H177.73V39H162.68V14.43H177.73V19.225H168.665Z" fill="white"/>
<path d="M110 6H104V40H110V6Z" fill="#FDFDFD"/>
<path d="M107 48L112.774 38H101.226L107 48ZM106 29V39H108V29H106Z" fill="white"/>
<path d="M121 4H6V10H121V4Z" fill="#FDFDFD"/>
<path d="M19 9.08823V30.5C19 30.5 19 36 12.5 36C6.00001 36 6 28.0882 6 28.0882L6.00001 25.2941" stroke="#FDFDFD" stroke-width="6"/>
<path d="M6 16L0.226501 26H11.7735L6 16ZM7 35V25H5V35H7Z" fill="white"/>
</svg>
